<svg xmlns="http://www.w3.org/2000/svg" xmlns:xlink="http://www.w3.org/1999/xlink" version="1.1" x="0px" y="0px" viewBox="0 0 512 640" style="enable-background:new 0 0 512 512;" xml:space="preserve"><g><polygon points="495.3,248 306.5,248 486.1,189.7 481.1,174.4 301.6,232.8 454.3,121.8 444.9,108.9 292.2,219.8 403.1,67.1    390.2,57.7 279.2,210.4 337.6,30.9 322.3,25.9 264,205.5 264,16.7 248,16.7 248,205.5 189.7,25.9 174.4,30.9 232.8,210.4    121.8,57.7 108.9,67.1 219.8,219.8 67.1,108.9 57.7,121.8 210.4,232.8 30.9,174.4 25.9,189.7 205.5,248 16.7,248 16.7,264    205.5,264 25.9,322.3 30.9,337.6 210.4,279.2 57.7,390.2 67.1,403.1 219.8,292.2 108.9,444.9 121.8,454.3 232.8,301.6 174.4,481.1    189.7,486.1 248,306.5 248,495.3 264,495.3 264,306.5 322.3,486.1 337.6,481.1 279.2,301.6 390.2,454.3 403.1,444.9 292.2,292.2    444.9,403.1 454.3,390.2 301.6,279.2 481.1,337.6 486.1,322.3 306.5,264 495.3,264  "/></g></svg>